# Blender 3.5.0
# www.blender.org
mtllib Character_2.mtl
o Cube
v 0.328083 -0.046806 -0.576158
v -0.032296 2.609860 0.713940
v 0.646599 1.355588 -0.318830
v -0.032296 2.609860 -0.793930
v 0.604736 2.609860 0.713940
v 0.604736 2.609860 -0.793930
v 0.083003 6.081976 0.338201
v 0.084710 6.083757 -0.420124
v 0.489436 6.081976 0.338201
v 0.487729 6.083757 -0.420124
v 0.286220 2.609860 0.713940
v 0.286220 6.140075 0.395843
v 0.564850 4.744184 0.666196
v 0.007589 4.744184 0.666196
v 0.286220 4.744184 0.666196
v 0.286220 5.424382 1.925061
v 0.029604 5.424382 1.925061
v 0.029604 5.058756 1.925061
v 0.542835 5.424382 1.925061
v 0.542835 5.058756 1.925061
v 0.286220 5.058756 1.925061
v 0.286220 2.609860 -0.793930
v 0.286220 6.142373 -0.478060
v 0.564850 4.744184 -0.746819
v 0.007589 4.744184 -0.746819
v 0.286220 4.744184 -0.746819
v 0.286220 5.458855 -2.023737
v 0.520963 5.458855 -2.023737
v 0.520963 5.024283 -2.023737
v 0.051477 5.458855 -2.023737
v 0.051477 5.024283 -2.023737
v 0.286220 5.024283 -2.023737
v 0.009567 0.227570 -1.305340
v 0.009567 3.032358 -0.790684
v 0.646599 0.227570 -1.305340
v 0.646599 3.032358 -0.790684
v 0.328083 3.032358 -0.790684
v -0.032296 -0.290138 0.713940
v 0.604736 -0.290138 0.713940
v 0.286220 -0.290138 0.713940
v 0.646599 0.227570 -1.305340
v 0.604736 -0.290138 0.713940
v 0.009567 0.227570 -1.305340
v -0.032296 -0.290138 0.713940
v 0.646599 3.032358 -0.790684
v 0.646599 0.227570 -1.305340
v 0.646599 1.629964 -1.048012
v 0.646599 -0.046806 -0.576158
v 0.646599 2.757982 -0.061502
v 0.009567 -0.046806 -0.576158
v 0.328083 0.227570 -1.305340
v 0.646599 -0.046806 -0.576158
v 0.286220 -0.290138 0.713940
v 0.009567 -0.046806 -0.576158
v 0.009567 2.757982 -0.061502
v 0.009567 1.629964 -1.048012
v 0.009567 1.355588 -0.318830
v 0.633751 1.383910 0.192395
v -0.003281 0.206459 1.150323
v -0.003281 3.035639 0.705513
v 0.633751 0.206459 1.150323
v 0.633751 3.035639 0.705513
v 0.315235 3.035639 0.705513
v -0.003281 0.206459 1.150323
v 0.633751 0.206459 1.150323
v 0.315235 0.206459 1.150323
v -0.003281 -0.030680 0.414800
v 0.315235 -0.030680 0.414800
v 0.633751 -0.030680 0.414800
v 0.633751 3.035639 0.705513
v 0.633751 0.206459 1.150323
v 0.633751 -0.030680 0.414800
v 0.633751 2.798500 -0.030010
v 0.633751 1.621049 0.927918
v -0.003281 -0.030680 0.414800
v -0.003281 1.621049 0.927918
v -0.003281 2.798500 -0.030010
v -0.003281 1.383910 0.192395
v 0.633751 1.383910 0.192395
v -0.003281 0.206459 1.150323
v -0.003281 3.035639 0.705513
v 0.633751 0.206459 1.150323
v 0.633751 3.035639 0.705513
v 0.315235 3.035639 0.705513
v -0.003281 0.206459 1.150323
v 0.633751 0.206459 1.150323
v 0.315235 0.206459 1.150323
v -0.003281 -0.030680 0.414800
v 0.315235 -0.030680 0.414800
v 0.633751 -0.030680 0.414800
v 0.633751 3.035639 0.705513
v 0.633751 0.206459 1.150323
v 0.633751 -0.030680 0.414800
v 0.633751 2.798500 -0.030010
v 0.633751 1.621049 0.927918
v -0.003281 -0.030680 0.414800
v -0.003281 1.621049 0.927918
v -0.003281 2.798500 -0.030010
v -0.003281 1.383910 0.192395
v 0.069731 6.922902 0.406853
v 0.069776 6.922973 -0.487096
v 0.286220 6.925373 -0.600340
v 0.502663 6.922973 -0.487096
v 0.502709 6.922902 0.406853
v 0.286220 6.925284 0.520090
v 0.077967 8.770765 0.502856
v 0.077967 8.770765 -0.582846
v 0.286220 8.770765 -0.764986
v 0.494473 8.770765 -0.582846
v 0.494473 8.770765 0.502856
v 0.286220 8.770765 0.684996
vn 0.9990 0.0364 -0.0260
vn 0.9999 -0.0158 -0.0001
vn -0.9990 0.0359 0.0252
vn -0.0000 -0.9702 0.2424
vn -0.9994 -0.0000 -0.0343
vn 0.3478 0.8702 0.3489
vn -0.0000 0.0224 0.9997
vn -0.0000 -0.0000 1.0000
vn -0.0000 0.9057 0.4239
vn 0.9998 -0.0000 0.0175
vn -0.9985 0.0535 -0.0114
vn -0.0000 -0.9768 -0.2143
vn -0.0000 0.0221 -0.9998
vn -0.0000 -0.0000 -1.0000
vn -0.3505 0.8751 -0.3337
vn -0.0000 0.9146 -0.4044
vn 0.9983 0.0579 -0.0019
vn -1.0000 -0.0000 -0.0000
vn -0.0000 0.1805 -0.9836
vn -0.0000 1.0000 -0.0000
vn 1.0000 -0.0000 -0.0000
vn -0.0000 -0.9359 -0.3522
vn -0.0000 0.1553 0.9879
vn -0.0000 -0.9518 0.3069
vn 0.6569 -0.0671 0.7510
vn -0.9998 -0.0180 -0.0023
vn 0.4578 -0.1390 0.8781
vn -0.4580 -0.1372 -0.8783
vn -0.2500 -0.0827 0.9647
vn 0.2534 -0.0814 -0.9639
vn 1.0000 0.0045 -0.0000
vn -1.0000 0.0044 -0.0001
vn -0.6569 -0.0670 -0.7510
vn -0.4627 -0.0439 0.8854
vn 0.4628 -0.0438 -0.8854
vn 0.9998 0.0187 -0.0000
vn 0.9849 0.0146 0.1727
vn 0.9984 0.0558 -0.0021
vn 0.9998 -0.0180 -0.0023
vn -0.9998 0.0187 -0.0000
vn -0.9859 0.0147 -0.1667
vn -0.9983 0.0580 -0.0021
vn -0.9983 0.0579 -0.0019
vn -0.3478 0.8702 0.3489
vn 0.9985 0.0535 -0.0114
vn -0.9998 -0.0000 0.0175
vn 0.3505 0.8751 -0.3337
vn 0.9994 -0.0000 -0.0343
vn 0.4627 -0.0439 0.8854
vn -0.9999 -0.0158 -0.0001
vn 0.2500 -0.0827 0.9647
vn -0.2534 -0.0814 -0.9639
vn -0.4578 -0.1390 0.8781
vn 0.4580 -0.1372 -0.8783
vn 1.0000 0.0044 -0.0001
vn -1.0000 0.0045 -0.0000
vn -0.4628 -0.0438 -0.8854
vn -0.6569 -0.0671 0.7510
vn 0.6569 -0.0670 -0.7510
vt 0.779737 0.683749
vt 0.653207 0.593834
vt 0.477261 0.118689
vt 0.092181 0.642977
vt 0.336183 0.000000
vt 0.653207 0.593834
vt 0.954523 0.400488
vt 0.711953 0.593834
vt 0.594460 0.593834
vt 0.813445 0.519177
vt 0.696053 0.817159
vt 0.433103 0.956043
vt 0.252374 0.338304
vt 0.532210 0.790352
vt 0.157863 0.259331
vt 0.486220 0.593834
vt 0.475949 0.956043
vt 0.729635 0.180873
vt 0.653207 0.817159
vt 0.528706 0.593834
vt 0.635124 0.259846
vt 0.489723 0.790352
vt 0.682580 0.593834
vt 0.454526 0.946815
vt 0.674630 0.803730
vt 0.711953 0.742151
vt 0.859049 0.287000
vt 0.535713 0.758048
vt 0.594460 0.758048
vt 0.653207 0.742151
vt 0.381788 0.232177
vt 0.682580 0.742151
vt 0.565087 0.758048
vt 0.454526 0.760473
vt 0.555759 0.573870
vt 0.528706 0.573870
vt 0.427473 0.760473
vt 0.442170 0.415539
vt 0.528706 0.519356
vt 0.592139 0.593834
vt 0.477261 0.373827
vt 0.481578 0.760473
vt 0.582811 0.573870
vt 0.919431 0.103638
vt 0.954523 0.145350
vt 0.582811 0.519356
vt 0.538034 0.593834
vt 0.565087 0.593834
vt 0.555759 0.519356
vt 0.623833 0.593834
vt 0.510967 0.780808
vt 0.507463 0.580338
vt 0.486220 0.760473
vt 0.594460 0.742153
vt 0.717971 0.405689
vt 0.240709 0.113488
vt 0.427473 0.760473
vt 0.653207 0.742153
vt 0.623833 0.742153
vt 0.456847 0.760473
vt 0.452220 0.583971
vt 0.510967 0.593834
vt 0.427473 0.583971
vt 0.486220 0.593834
vt 0.521845 0.431372
vt 0.427473 0.519177
vt 0.481593 0.593834
vt 0.563554 0.480949
vt 0.044584 0.087806
vt 0.476967 0.583971
vt 0.535713 0.593834
vt 0.086292 0.038228
vt 0.432100 0.593834
vt 0.476967 0.519177
vt 0.452220 0.519177
vt 0.456847 0.593834
vt 0.427473 0.760473
vt 0.092181 0.766772
vt 0.092181 0.519183
vt 0.427473 1.000000
vt 0.368726 0.760473
vt 0.368726 1.000000
vt 0.398100 1.000000
vt 0.184362 0.519177
vt 0.184362 0.519177
vt 0.184362 0.519177
vt 0.750363 0.772923
vt 0.184362 0.519177
vt 0.809110 0.772923
vt 0.184362 0.519177
vt 0.184362 0.766766
vt 0.184362 0.519177
vt 0.184362 0.642972
vt 0.092181 0.519183
vt 0.092181 0.766772
vt 0.809110 0.683749
vt 0.779737 0.772923
vt 0.750363 0.683749
vt 0.184362 0.519177
vt 0.000000 0.766766
vt 0.000000 0.519177
vt 0.427473 0.880237
vt 0.092181 0.642977
vt 0.000000 0.642972
vt 0.276544 0.642972
vt 0.368726 0.519177
vt 0.276544 0.766765
vt 0.368726 0.760473
vt 0.276544 0.519179
vt 0.427473 0.519177
vt 0.427473 0.760473
vt 0.398100 0.760473
vt 0.809110 0.593834
vt 0.750363 0.593834
vt 0.779737 0.593834
vt 0.809110 0.683749
vt 0.779737 0.683749
vt 0.750363 0.683749
vt 0.184362 0.766764
vt 0.184362 0.519177
vt 0.276544 0.519179
vt 0.276544 0.766765
vt 0.184362 0.642970
vt 0.368726 0.766764
vt 0.368726 0.639825
vt 0.276544 0.642972
vt 0.368726 0.519177
vt 0.368726 0.642970
vt 0.694594 0.742548
vt 0.209359 0.399594
vt 0.487503 0.519660
vt 0.105241 0.312012
vt 0.507463 0.519356
vt 0.091657 0.301341
vt 0.568918 0.217836
vt 0.527423 0.519660
vt 0.582502 0.207165
vt 0.654665 0.742548
vt 0.686620 0.119583
vt 0.699414 0.108065
vt 0.674630 0.742151
vt 0.222152 0.411112
vt 0.750363 0.748842
vt 0.118805 0.504665
vt 0.750363 0.616102
vt 0.017226 0.419206
vt 0.000000 0.405044
vt 0.731158 0.593834
vt 0.477261 0.114133
vt 0.711953 0.616102
vt 0.494487 0.099971
vt 0.596067 0.014512
vt 0.711953 0.748842
vt 0.612923 0.000000
vt 0.731158 0.771111
vt 0.135662 0.519177
s 0
f 6/10/1 10/21/1 13/27/1
f 9/18/2 103/137/2 104/139/2
f 2/3/3 7/13/3 25/56/3
f 15/33/4 18/40/4 14/29/4
f 25/56/5 30/69/5 31/72/5
f 12/24/6 19/42/6 9/17/6
f 11/23/7 14/30/7 2/2/7
f 11/23/7 13/26/7 15/32/7
f 20/46/8 16/35/8 21/49/8
f 21/49/8 17/36/8 18/39/8
f 12/24/9 17/37/9 16/34/9
f 13/27/10 19/44/10 20/45/10
f 14/31/11 17/38/11 7/13/11
f 15/33/4 20/47/4 21/48/4
f 26/60/12 31/73/12 32/76/12
f 22/50/13 24/54/13 6/9/13
f 22/50/13 25/58/13 26/59/13
f 31/74/14 27/61/14 32/75/14
f 32/75/14 28/63/14 29/66/14
f 23/51/15 30/71/15 8/14/15
f 26/60/12 29/67/12 24/53/12
f 23/51/16 28/64/16 27/62/16
f 24/55/17 28/65/17 10/21/17
f 55/101/18 56/103/18 57/104/18
f 56/102/19 37/83/19 35/81/19
f 42/88/20 40/86/20 39/85/20
f 47/93/21 48/94/21 46/92/21
f 41/87/22 1/1/22 51/97/22
f 53/99/20 38/84/20 40/86/20
f 51/97/22 50/96/22 43/89/22
f 47/93/21 49/95/21 3/4/21
f 57/104/18 33/78/18 54/100/18
f 63/112/23 76/125/23 59/106/23
f 68/117/24 64/113/24 67/116/24
f 69/118/24 66/115/24 68/117/24
f 58/105/21 71/120/21 72/121/21
f 73/122/21 74/123/21 58/105/21
f 59/107/18 78/128/18 75/124/18
f 60/109/18 78/128/18 76/126/18
f 105/140/25 110/152/25 111/154/25
f 7/13/26 101/132/26 8/15/26
f 12/25/27 104/138/27 105/141/27
f 23/52/28 101/131/28 102/133/28
f 12/25/29 100/129/29 7/11/29
f 23/52/30 103/136/30 10/20/30
f 108/148/20 106/143/20 110/153/20
f 104/139/31 109/151/31 110/152/31
f 100/130/32 107/146/32 101/132/32
f 102/134/33 107/146/33 108/147/33
f 105/142/34 106/144/34 100/130/34
f 102/135/35 109/151/35 103/137/35
f 13/27/36 5/7/36 6/10/36
f 6/10/37 24/55/37 10/21/37
f 10/21/38 9/18/38 13/27/38
f 9/18/39 10/21/39 103/137/39
f 25/56/40 4/5/40 2/3/40
f 2/3/41 14/31/41 7/13/41
f 7/13/42 8/15/42 25/56/42
f 15/33/4 21/48/4 18/40/4
f 25/56/43 8/15/43 30/69/43
f 12/24/9 16/34/9 19/42/9
f 11/23/7 15/32/7 14/30/7
f 11/23/7 5/8/7 13/26/7
f 20/46/8 19/43/8 16/35/8
f 21/49/8 16/35/8 17/36/8
f 12/24/44 7/12/44 17/37/44
f 13/27/45 9/18/45 19/44/45
f 14/31/46 18/41/46 17/38/46
f 15/33/4 13/28/4 20/47/4
f 26/60/12 25/57/12 31/73/12
f 22/50/13 26/59/13 24/54/13
f 22/50/13 4/6/13 25/58/13
f 31/74/14 30/70/14 27/61/14
f 32/75/14 27/61/14 28/63/14
f 23/51/16 27/62/16 30/71/16
f 26/60/12 32/76/12 29/67/12
f 23/51/47 10/22/47 28/64/47
f 24/55/48 29/68/48 28/65/48
f 55/101/18 34/79/18 56/103/18
f 35/81/19 33/77/19 56/102/19
f 56/102/19 34/80/19 37/83/19
f 37/83/19 36/82/19 35/81/19
f 42/88/20 53/99/20 40/86/20
f 47/93/21 3/4/21 48/94/21
f 41/87/22 52/98/22 1/1/22
f 53/99/20 44/90/20 38/84/20
f 51/97/22 1/1/22 50/96/22
f 47/93/21 45/91/21 49/95/21
f 57/104/18 56/103/18 33/78/18
f 59/106/23 61/110/23 62/111/23
f 63/112/23 60/108/23 76/125/23
f 59/106/23 62/111/23 63/112/23
f 68/117/24 66/115/24 64/113/24
f 69/118/24 65/114/24 66/115/24
f 58/105/21 74/123/21 71/120/21
f 73/122/21 70/119/21 74/123/21
f 59/107/18 76/126/18 78/128/18
f 60/109/18 77/127/18 78/128/18
f 105/140/49 104/139/49 110/152/49
f 7/13/50 100/130/50 101/132/50
f 12/25/51 9/19/51 104/138/51
f 23/52/52 8/16/52 101/131/52
f 12/25/53 105/141/53 100/129/53
f 23/52/54 102/133/54 103/136/54
f 110/153/20 109/150/20 108/148/20
f 108/148/20 107/145/20 106/143/20
f 106/143/20 111/155/20 110/153/20
f 104/139/55 103/137/55 109/151/55
f 100/130/56 106/144/56 107/146/56
f 102/134/57 101/132/57 107/146/57
f 105/142/58 111/156/58 106/144/58
f 102/135/59 108/149/59 109/151/59
l 58 79
l 59 80
l 60 81
l 61 82
l 62 83
l 63 84
l 64 85
l 65 86
l 66 87
l 67 88
l 68 89
l 69 90
l 70 91
l 71 92
l 72 93
l 73 94
l 74 95
l 75 96
l 76 97
l 77 98
l 78 99
