# Blender 3.5.0
# www.blender.org
mtllib Character_1.mtl
o Cube
v 0.328083 0.225292 -0.702350
v -0.032296 2.684989 1.008112
v 0.646599 1.523710 -0.361175
v -0.032296 2.684989 -0.991081
v 0.604736 2.684989 1.008112
v 0.604736 2.684989 -0.991081
v 0.053913 6.076379 0.675225
v 0.055864 6.080829 -0.660308
v 0.518526 6.076379 0.675225
v 0.516575 6.080829 -0.660308
v 0.286220 2.684989 1.008112
v 0.286220 6.221511 0.776742
v 0.604736 4.293318 1.008112
v -0.032296 4.293318 1.008112
v 0.286220 4.293318 1.008112
v 0.286220 5.393053 2.789207
v -0.007130 5.393053 2.789207
v -0.007130 4.801912 2.789207
v 0.579569 5.393053 2.789207
v 0.579569 4.801912 2.789207
v 0.286220 4.801912 2.789207
v 0.286220 2.684989 -0.991081
v 0.286220 6.227252 -0.762342
v 0.604736 4.293318 -0.991081
v -0.032296 4.293318 -0.991081
v 0.286220 4.293318 -0.991081
v 0.286220 5.448787 -2.797719
v 0.554566 5.448787 -2.797719
v 0.554566 4.746178 -2.797719
v 0.017873 5.448787 -2.797719
v 0.017873 4.746178 -2.797719
v 0.286220 4.746178 -2.797719
v 0.009567 0.479325 -1.669129
v 0.009567 3.076162 -0.986778
v 0.646599 0.479325 -1.669129
v 0.646599 3.076162 -0.986778
v 0.328083 3.076162 -0.986778
v -0.032296 0.000000 1.008112
v 0.604736 0.000000 1.008112
v 0.286220 0.000000 1.008112
v 0.646599 0.479325 -1.669129
v 0.604736 0.000000 1.008112
v 0.009567 0.479325 -1.669129
v -0.032296 0.000000 1.008112
v 0.646599 3.076162 -0.986778
v 0.646599 0.479325 -1.669129
v 0.646599 1.777743 -1.327953
v 0.646599 0.225292 -0.702350
v 0.646599 2.822129 -0.019999
v 0.009567 0.225292 -0.702350
v 0.328083 0.479325 -1.669129
v 0.646599 0.225292 -0.702350
v 0.286220 0.000000 1.008112
v 0.009567 0.225292 -0.702350
v 0.009567 2.822129 -0.019999
v 0.009567 1.777743 -1.327953
v 0.009567 1.523710 -0.361175
v 0.633751 1.549932 0.316627
v -0.003281 0.459779 1.586686
v -0.003281 3.079200 0.996940
v 0.633751 0.459779 1.586686
v 0.633751 3.079200 0.996940
v 0.315235 3.079200 0.996940
v -0.003281 0.459779 1.586686
v 0.633751 0.459779 1.586686
v 0.315235 0.459779 1.586686
v -0.003281 0.240222 0.611500
v 0.315235 0.240222 0.611500
v 0.633751 0.240222 0.611500
v 0.633751 3.079200 0.996940
v 0.633751 0.459779 1.586686
v 0.633751 0.240222 0.611500
v 0.633751 2.859643 0.021753
v 0.633751 1.769490 1.291813
v -0.003281 0.240222 0.611500
v -0.003281 1.769490 1.291813
v -0.003281 2.859643 0.021753
v -0.003281 1.549932 0.316627
v 0.633751 1.549932 0.316627
v -0.003281 0.459779 1.586686
v -0.003281 3.079200 0.996940
v 0.633751 0.459779 1.586686
v 0.633751 3.079200 0.996940
v 0.315235 3.079200 0.996940
v -0.003281 0.459779 1.586686
v 0.633751 0.459779 1.586686
v 0.315235 0.459779 1.586686
v -0.003281 0.240222 0.611500
v 0.315235 0.240222 0.611500
v 0.633751 0.240222 0.611500
v 0.633751 3.079200 0.996940
v 0.633751 0.459779 1.586686
v 0.633751 0.240222 0.611500
v 0.633751 2.859643 0.021753
v 0.633751 1.769490 1.291813
v -0.003281 0.240222 0.611500
v -0.003281 1.769490 1.291813
v -0.003281 2.859643 0.021753
v -0.003281 1.549932 0.316627
v 0.069731 6.885100 0.746167
v 0.069776 6.885201 -0.729182
v 0.286220 6.888634 -0.916077
v 0.502663 6.885201 -0.729182
v 0.502709 6.885100 0.746167
v 0.286220 6.888507 0.933049
v 0.077967 8.389117 0.728249
v 0.077967 8.389117 -0.711218
v 0.286220 8.389117 -0.952706
v 0.494473 8.389117 -0.711218
v 0.494473 8.389117 0.728249
v 0.286220 8.389117 0.969737
vn 0.9993 0.0282 -0.0226
vn 0.9998 0.0197 -0.0014
vn -0.9994 0.0276 0.0222
vn -0.0000 -0.9616 0.2746
vn -0.9996 -0.0000 -0.0278
vn 0.5866 0.7754 0.2337
vn -0.0000 -0.0000 1.0000
vn -0.0000 0.9247 0.3807
vn 0.9999 -0.0000 0.0141
vn -0.9989 0.0457 -0.0141
vn -0.0000 -0.9700 -0.2431
vn -0.0000 -0.0000 -1.0000
vn -0.5907 0.7766 -0.2191
vn -0.0000 0.9340 -0.3572
vn 0.9988 0.0486 0.0034
vn -1.0000 -0.0000 -0.0000
vn -0.0000 0.2541 -0.9672
vn -0.0000 1.0000 -0.0000
vn 1.0000 -0.0000 -0.0000
vn -0.0000 -0.9672 -0.2541
vn -0.0000 0.2196 0.9756
vn -0.0000 -0.9756 0.2196
vn 0.7572 -0.0160 0.6530
vn -0.9999 0.0173 -0.0000
vn 0.6418 -0.1750 0.7467
vn -0.6421 -0.1736 -0.7468
vn -0.3598 -0.0745 0.9300
vn 0.3647 -0.0732 -0.9283
vn 1.0000 0.0055 -0.0000
vn -1.0000 0.0054 -0.0000
vn -0.7572 -0.0159 -0.6530
vn -0.6535 0.0126 0.7568
vn 0.6536 0.0126 -0.7567
vn 0.9663 -0.0000 0.2575
vn 0.9988 0.0481 -0.0013
vn 0.9999 0.0173 -0.0000
vn -0.9681 -0.0000 -0.2507
vn -0.9988 0.0495 -0.0013
vn -0.9988 0.0486 0.0034
vn -0.5866 0.7754 0.2337
vn 0.9989 0.0457 -0.0141
vn -0.9999 -0.0000 0.0141
vn 0.5907 0.7766 -0.2191
vn 0.9996 -0.0000 -0.0278
vn 0.6535 0.0126 0.7568
vn -0.9998 0.0197 -0.0014
vn 0.3598 -0.0745 0.9300
vn -0.3647 -0.0732 -0.9283
vn -0.6418 -0.1750 0.7467
vn 0.6421 -0.1736 -0.7468
vn 1.0000 0.0054 -0.0000
vn -1.0000 0.0055 -0.0000
vn -0.6536 0.0126 -0.7567
vn -0.7572 -0.0160 0.6530
vn 0.7572 -0.0159 -0.6530
vt 0.779737 0.683749
vt 0.653207 0.593834
vt 0.477261 0.118689
vt 0.092181 0.642977
vt 0.336183 0.000000
vt 0.653207 0.593834
vt 0.954523 0.400488
vt 0.711953 0.593834
vt 0.594460 0.593834
vt 0.813445 0.519177
vt 0.696053 0.817159
vt 0.433103 0.956043
vt 0.252374 0.338304
vt 0.532210 0.790352
vt 0.157863 0.259331
vt 0.486220 0.593834
vt 0.475949 0.956043
vt 0.729635 0.180873
vt 0.653207 0.817159
vt 0.528706 0.593834
vt 0.635124 0.259846
vt 0.489723 0.790352
vt 0.682580 0.593834
vt 0.454526 0.946815
vt 0.674630 0.803730
vt 0.711953 0.742151
vt 0.859049 0.287000
vt 0.535713 0.758048
vt 0.594460 0.758048
vt 0.653207 0.742151
vt 0.381788 0.232177
vt 0.682580 0.742151
vt 0.565087 0.758048
vt 0.454526 0.760473
vt 0.555759 0.573870
vt 0.528706 0.573870
vt 0.427473 0.760473
vt 0.442170 0.415539
vt 0.528706 0.519356
vt 0.592139 0.593834
vt 0.477261 0.373827
vt 0.481578 0.760473
vt 0.582811 0.573870
vt 0.919431 0.103638
vt 0.954523 0.145350
vt 0.582811 0.519356
vt 0.538034 0.593834
vt 0.565087 0.593834
vt 0.555759 0.519356
vt 0.623833 0.593834
vt 0.510967 0.780808
vt 0.507463 0.580338
vt 0.486220 0.760473
vt 0.594460 0.742153
vt 0.717971 0.405689
vt 0.240709 0.113488
vt 0.427473 0.760473
vt 0.653207 0.742153
vt 0.623833 0.742153
vt 0.456847 0.760473
vt 0.452220 0.583971
vt 0.510967 0.593834
vt 0.427473 0.583971
vt 0.486220 0.593834
vt 0.521845 0.431372
vt 0.427473 0.519177
vt 0.481593 0.593834
vt 0.563554 0.480949
vt 0.044584 0.087806
vt 0.476967 0.583971
vt 0.535713 0.593834
vt 0.086292 0.038228
vt 0.432100 0.593834
vt 0.476967 0.519177
vt 0.452220 0.519177
vt 0.456847 0.593834
vt 0.427473 0.760473
vt 0.092181 0.766772
vt 0.092181 0.519183
vt 0.427473 1.000000
vt 0.368726 0.760473
vt 0.368726 1.000000
vt 0.398100 1.000000
vt 0.184362 0.519177
vt 0.184362 0.519177
vt 0.184362 0.519177
vt 0.750363 0.772923
vt 0.184362 0.519177
vt 0.809110 0.772923
vt 0.184362 0.519177
vt 0.184362 0.766766
vt 0.184362 0.519177
vt 0.184362 0.642972
vt 0.092181 0.519183
vt 0.092181 0.766772
vt 0.809110 0.683749
vt 0.779737 0.772923
vt 0.750363 0.683749
vt 0.184362 0.519177
vt 0.000000 0.766766
vt 0.000000 0.519177
vt 0.427473 0.880237
vt 0.092181 0.642977
vt 0.000000 0.642972
vt 0.276544 0.642972
vt 0.368726 0.519177
vt 0.276544 0.766765
vt 0.368726 0.760473
vt 0.276544 0.519179
vt 0.427473 0.519177
vt 0.427473 0.760473
vt 0.398100 0.760473
vt 0.809110 0.593834
vt 0.750363 0.593834
vt 0.779737 0.593834
vt 0.809110 0.683749
vt 0.779737 0.683749
vt 0.750363 0.683749
vt 0.184362 0.766764
vt 0.184362 0.519177
vt 0.276544 0.519179
vt 0.276544 0.766765
vt 0.184362 0.642970
vt 0.368726 0.766764
vt 0.368726 0.639825
vt 0.276544 0.642972
vt 0.368726 0.519177
vt 0.368726 0.642970
vt 0.694594 0.742548
vt 0.209359 0.399594
vt 0.487503 0.519660
vt 0.105241 0.312012
vt 0.507463 0.519356
vt 0.091657 0.301341
vt 0.568918 0.217836
vt 0.527423 0.519660
vt 0.582502 0.207165
vt 0.686620 0.119583
vt 0.654665 0.742548
vt 0.699414 0.108065
vt 0.674630 0.742151
vt 0.222152 0.411112
vt 0.750363 0.748842
vt 0.118805 0.504665
vt 0.750363 0.616102
vt 0.017226 0.419206
vt 0.000000 0.405044
vt 0.731158 0.593834
vt 0.477261 0.114133
vt 0.711953 0.616102
vt 0.494487 0.099971
vt 0.711953 0.748842
vt 0.596067 0.014512
vt 0.612923 0.000000
vt 0.731158 0.771111
vt 0.135662 0.519177
s 0
f 6/10/1 10/21/1 13/27/1
f 10/21/2 104/138/2 9/18/2
f 2/3/3 7/13/3 25/56/3
f 15/33/4 18/40/4 14/29/4
f 25/56/5 30/69/5 31/72/5
f 12/24/6 19/42/6 9/17/6
f 11/23/7 14/30/7 2/2/7
f 5/8/7 15/32/7 11/23/7
f 20/46/7 16/35/7 21/49/7
f 21/49/7 17/36/7 18/39/7
f 12/24/8 17/37/8 16/34/8
f 13/27/9 19/44/9 20/45/9
f 14/31/10 17/38/10 7/13/10
f 15/33/4 20/47/4 21/48/4
f 26/60/11 31/73/11 32/76/11
f 22/50/12 24/54/12 6/9/12
f 4/6/12 26/59/12 22/50/12
f 31/74/12 27/61/12 32/75/12
f 32/75/12 28/63/12 29/66/12
f 23/51/13 30/71/13 8/14/13
f 26/60/11 29/67/11 24/53/11
f 23/51/14 28/64/14 27/62/14
f 24/55/15 28/65/15 10/21/15
f 55/101/16 56/103/16 57/104/16
f 56/102/17 37/83/17 35/81/17
f 42/88/18 40/86/18 39/85/18
f 47/93/19 48/94/19 46/92/19
f 41/87/20 1/1/20 51/97/20
f 53/99/18 38/84/18 40/86/18
f 51/97/20 50/96/20 43/89/20
f 47/93/19 49/95/19 3/4/19
f 57/104/16 33/78/16 54/100/16
f 63/112/21 76/125/21 59/106/21
f 68/117/22 64/113/22 67/116/22
f 69/118/22 66/115/22 68/117/22
f 58/105/19 71/120/19 72/121/19
f 73/122/19 74/123/19 58/105/19
f 59/107/16 78/128/16 75/124/16
f 60/109/16 78/128/16 76/126/16
f 105/140/23 110/153/23 111/154/23
f 8/15/24 100/130/24 101/132/24
f 12/25/25 104/139/25 105/141/25
f 23/52/26 101/131/26 102/133/26
f 12/25/27 100/129/27 7/11/27
f 23/52/28 103/136/28 10/20/28
f 108/148/18 106/143/18 110/152/18
f 103/137/29 110/153/29 104/138/29
f 101/132/30 106/144/30 107/146/30
f 102/134/31 107/146/31 108/147/31
f 105/142/32 106/144/32 100/130/32
f 102/135/33 109/151/33 103/137/33
f 13/27/19 5/7/19 6/10/19
f 6/10/34 24/55/34 10/21/34
f 10/21/35 9/18/35 13/27/35
f 10/21/36 103/137/36 104/138/36
f 25/56/16 4/5/16 2/3/16
f 2/3/37 14/31/37 7/13/37
f 7/13/38 8/15/38 25/56/38
f 15/33/4 21/48/4 18/40/4
f 25/56/39 8/15/39 30/69/39
f 12/24/8 16/34/8 19/42/8
f 11/23/7 15/32/7 14/30/7
f 5/8/7 13/26/7 15/32/7
f 20/46/7 19/43/7 16/35/7
f 21/49/7 16/35/7 17/36/7
f 12/24/40 7/12/40 17/37/40
f 13/27/41 9/18/41 19/44/41
f 14/31/42 18/41/42 17/38/42
f 15/33/4 13/28/4 20/47/4
f 26/60/11 25/57/11 31/73/11
f 22/50/12 26/59/12 24/54/12
f 4/6/12 25/58/12 26/59/12
f 31/74/12 30/70/12 27/61/12
f 32/75/12 27/61/12 28/63/12
f 23/51/14 27/62/14 30/71/14
f 26/60/11 32/76/11 29/67/11
f 23/51/43 10/22/43 28/64/43
f 24/55/44 29/68/44 28/65/44
f 55/101/16 34/79/16 56/103/16
f 35/81/17 33/77/17 56/102/17
f 56/102/17 34/80/17 37/83/17
f 37/83/17 36/82/17 35/81/17
f 42/88/18 53/99/18 40/86/18
f 47/93/19 3/4/19 48/94/19
f 41/87/20 52/98/20 1/1/20
f 53/99/18 44/90/18 38/84/18
f 51/97/20 1/1/20 50/96/20
f 47/93/19 45/91/19 49/95/19
f 57/104/16 56/103/16 33/78/16
f 59/106/21 61/110/21 62/111/21
f 63/112/21 60/108/21 76/125/21
f 59/106/21 62/111/21 63/112/21
f 68/117/22 66/115/22 64/113/22
f 69/118/22 65/114/22 66/115/22
f 58/105/19 74/123/19 71/120/19
f 73/122/19 70/119/19 74/123/19
f 59/107/16 76/126/16 78/128/16
f 60/109/16 77/127/16 78/128/16
f 105/140/45 104/138/45 110/153/45
f 8/15/46 7/13/46 100/130/46
f 12/25/47 9/19/47 104/139/47
f 23/52/48 8/16/48 101/131/48
f 12/25/49 105/141/49 100/129/49
f 23/52/50 102/133/50 103/136/50
f 110/152/18 109/150/18 108/148/18
f 108/148/18 107/145/18 106/143/18
f 106/143/18 111/155/18 110/152/18
f 103/137/51 109/151/51 110/153/51
f 101/132/52 100/130/52 106/144/52
f 102/134/53 101/132/53 107/146/53
f 105/142/54 111/156/54 106/144/54
f 102/135/55 108/149/55 109/151/55
l 58 79
l 59 80
l 60 81
l 61 82
l 62 83
l 63 84
l 64 85
l 65 86
l 66 87
l 67 88
l 68 89
l 69 90
l 70 91
l 71 92
l 72 93
l 73 94
l 74 95
l 75 96
l 76 97
l 77 98
l 78 99
